<svg width="300" height="113" viewBox="0 0 300 113" fill="none" xmlns="http://www.w3.org/2000/svg">
<path fill-rule="evenodd" clip-rule="evenodd" d="M283.544 0.741582C279.814 0.934582 277.003 1.47958 277.295 1.95258C277.587 2.42558 277.02 2.60158 276.033 2.34358C274.144 1.84958 220.324 6.28058 220.324 6.92958C220.324 6.98358 216.724 7.21758 212.324 7.45058C193.804 8.43158 182.824 9.82158 182.824 11.1836C182.824 11.8596 182.29 11.8016 181.354 11.0246C180.388 10.2226 178.241 10.0176 175.104 10.4246C168.105 11.3346 161.059 12.0436 154.824 12.4636C136.824 13.6786 130.202 14.3686 129.232 15.1276C128.631 15.5976 127.878 15.7196 127.557 15.3996C127.237 15.0796 121.203 15.3516 114.149 16.0056C107.095 16.6586 98.6241 17.3936 95.3241 17.6376C92.0241 17.8816 87.5241 18.2416 85.3241 18.4386C83.1241 18.6356 74.6121 19.3116 66.4081 19.9416C58.2051 20.5716 51.1771 21.2816 50.7921 21.5196C50.4071 21.7576 45.4191 22.2176 39.7081 22.5426C33.9971 22.8676 23.5441 23.7786 16.4791 24.5666C9.41408 25.3546 3.31708 25.8046 2.93108 25.5656C0.824078 24.2636 0.230078 27.0326 0.906078 34.9996C1.94608 47.2696 5.70108 87.7106 6.94008 99.9996C7.52308 105.775 8.03508 111.052 8.07808 111.727C8.12408 112.432 9.04408 112.767 10.2411 112.514C11.3861 112.272 18.1741 111.58 25.3241 110.976C32.4741 110.372 44.6241 109.187 52.3241 108.343C60.0241 107.498 67.2241 106.796 68.3241 106.783C70.4931 106.756 94.1371 104.852 121.575 102.496C165.218 98.7466 174.491 97.9066 176.824 97.4876C178.199 97.2416 183.374 96.8126 188.324 96.5356C193.274 96.2596 204.299 95.3576 212.824 94.5326C241.884 91.7206 272.308 89.0036 280.824 88.4606C296.093 87.4856 299.734 86.9396 299.33 85.6846C299.121 85.0326 298.694 81.3496 298.382 77.4996C298.071 73.6496 297.367 70.3496 296.82 70.1666C296.272 69.9826 295.824 69.3936 295.824 68.8576C295.824 68.3206 296.274 68.1596 296.824 68.4996C298.044 69.2536 298.033 66.8046 296.772 56.9996C296.241 52.8746 295.612 46.7996 295.373 43.4996C292.861 8.79358 291.95 -0.121418 290.945 0.195582C290.604 0.303582 287.273 0.548582 283.544 0.741582ZM289.193 10.2496C289.552 13.6876 290.134 20.8866 290.485 26.2496C290.837 31.6126 291.516 35.9996 291.993 35.9996C292.471 35.9996 292.582 37.1166 292.239 38.4816C291.732 40.5026 293.215 61.1696 295.236 80.2496L295.634 83.9996H291.738C288.177 83.9996 274.637 85.2256 246.824 88.0656C241.049 88.6546 232.724 89.3536 228.324 89.6166C223.924 89.8806 219.199 90.3736 217.824 90.7116C216.449 91.0506 214.874 91.2146 214.324 91.0766C212.683 90.6656 183.732 93.3086 181.824 94.0436C181.549 94.1496 180.938 94.1666 180.466 94.0816C179.169 93.8486 153.364 95.9116 132.824 97.8916C121.54 98.9786 107.056 100.27 86.3241 102.036C79.1741 102.645 68.8241 103.528 63.3241 103.999C57.8241 104.471 44.7741 105.577 34.3241 106.458C23.8741 107.34 14.4241 108.159 13.3241 108.28C11.5481 108.475 11.2271 107.66 10.4571 101C9.98008 96.8746 9.08008 93.1686 8.45708 92.7646C7.63408 92.2306 7.65308 92.0256 8.52708 92.0146C9.35708 92.0046 9.59108 90.5276 9.28108 87.2496C8.56108 79.6156 5.97908 49.2096 5.31208 40.4996C4.97508 36.0996 4.49708 31.7906 4.24908 30.9226C3.86908 29.5926 5.77708 29.1466 16.5001 28.0606C34.0371 26.2846 33.9541 26.2916 46.5741 25.4536C52.7621 25.0426 57.8241 24.3506 57.8241 23.9156C57.8241 23.4806 59.4161 23.3836 61.3611 23.6996C63.3071 24.0156 68.8191 23.7756 73.6111 23.1676C78.4031 22.5596 91.3241 21.3156 102.324 20.4036C118.088 19.0966 122.617 18.4016 123.709 17.1226C124.898 15.7286 125.018 15.7196 124.564 17.0556C124.116 18.3766 124.966 18.5586 130.18 18.2566C133.559 18.0616 137.449 17.6246 138.824 17.2866C140.199 16.9486 141.721 16.7646 142.206 16.8796C142.69 16.9936 148.315 16.5886 154.706 15.9796C161.096 15.3706 171.049 14.4776 176.824 13.9956C202.576 11.8476 224.093 9.96458 233.324 9.05258C238.824 8.50958 246.924 7.78658 251.324 7.44558C259.77 6.79058 286.898 4.32658 287.932 4.12058C288.266 4.05458 288.833 6.81258 289.193 10.2496ZM271.824 9.10958C267.149 9.57358 259.049 10.3946 253.824 10.9346C248.599 11.4746 234.649 12.7176 222.824 13.6976C210.999 14.6766 202.33 15.6266 203.56 15.8066C204.79 15.9876 216.94 15.1816 230.56 14.0166C259.039 11.5796 278.12 9.97958 282.072 9.69658C283.583 9.58858 284.821 9.16158 284.822 8.74958C284.824 7.90058 283.706 7.93158 271.824 9.10958ZM285.05 16.9996C285.037 20.0246 285.591 27.6746 286.282 33.9996C287.03 40.8426 287.566 43.4746 287.607 40.4996C287.644 37.7496 287.09 30.0996 286.374 23.4996C285.552 15.9146 285.065 13.5236 285.05 16.9996ZM185.324 16.9996L179.324 17.6636L184.324 17.7326C187.074 17.7706 191.799 17.4596 194.824 17.0416C200.215 16.2966 200.235 16.2816 195.824 16.3086C193.349 16.3236 188.624 16.6346 185.324 16.9996ZM166.741 18.3996C166.512 18.6196 159.124 19.3216 150.324 19.9596C141.524 20.5976 131.849 21.5046 128.824 21.9746C124.694 22.6156 125.815 22.6906 133.324 22.2746C149.073 21.4016 178.947 18.2526 172.741 18.1196C169.67 18.0536 166.97 18.1796 166.741 18.3996ZM115.324 23.0836L110.324 23.6856L116.015 23.8426C119.145 23.9286 121.938 23.6246 122.221 23.1666C122.796 22.2356 122.403 22.2306 115.324 23.0836ZM93.3241 24.9996L89.3241 25.7156L93.8241 25.7586C96.2991 25.7826 100.799 25.4596 103.824 25.0416L109.324 24.2816L103.324 24.2826C100.024 24.2826 95.5241 24.6056 93.3241 24.9996ZM76.8241 26.7986C76.8241 27.2386 78.5121 27.4376 80.5741 27.2416C87.0051 26.6296 87.5291 26.2366 82.0741 26.1156C79.1861 26.0516 76.8241 26.3596 76.8241 26.7986ZM247.501 26.7096C246.374 26.9966 245.896 27.7456 246.251 28.6686C246.566 29.4906 246.824 30.5136 246.824 30.9426C246.824 31.3716 247.973 31.5026 249.377 31.2346C251.265 30.8736 251.851 30.2136 251.627 28.7016C251.297 26.4726 250.305 25.9936 247.501 26.7096ZM256.824 27.9996C254.465 30.3586 254.224 36.3956 255.927 50.4996C256.524 55.4496 257.083 61.0266 257.168 62.8926C257.348 66.8016 261.982 71.2416 263.891 69.3326C264.64 68.5836 264.531 67.8486 263.52 66.8386C261.346 64.6646 260.915 62.4856 260.189 49.9996C259.321 35.0736 259.338 30.9896 260.282 28.2496C261.264 25.3986 259.549 25.2746 256.824 27.9996ZM262.824 27.4616C262.824 28.3416 263.472 29.3106 264.263 29.6146C266.252 30.3776 266.94 34.2706 267.294 46.7666C267.462 52.6696 268.088 58.7366 268.687 60.2496C269.422 62.1086 269.44 62.9996 268.74 62.9996C268.171 62.9996 267.984 63.4496 268.324 63.9996C268.664 64.5496 268.465 64.9996 267.883 64.9996C267.301 64.9996 266.824 66.1796 266.824 67.6216C266.824 70.1106 266.938 70.1686 269.074 68.7696C273.407 65.9306 273.722 63.7206 272.17 46.9996C271.088 35.3436 270.284 30.8796 268.927 28.9996C266.795 26.0446 262.824 25.0436 262.824 27.4616ZM62.8241 27.5936C61.4491 27.7546 48.5081 28.8986 34.0661 30.1336L7.80708 32.3796L8.45208 38.9396C9.30708 47.6276 10.1651 48.2836 9.64908 39.8546L9.24308 33.2096L19.7831 32.5446C25.5811 32.1786 32.3491 31.6226 34.8241 31.3076C37.2991 30.9936 47.6491 29.9536 57.8241 28.9966C67.9991 28.0406 73.8491 27.2676 70.8241 27.2786C67.7991 27.2896 64.1991 27.4316 62.8241 27.5936ZM240.218 36.7496C240.585 42.1116 241.05 47.8496 241.252 49.4996C241.454 51.1496 241.938 56.6626 242.328 61.7496C243.036 70.9956 243.278 71.5296 246.242 70.3926C247.955 69.7356 248.466 64.9996 246.824 64.9996C246.274 64.9996 245.824 64.5226 245.824 63.9406C245.824 63.3586 246.274 63.1596 246.824 63.4996C247.409 63.8616 247.824 62.8236 247.824 60.9996C247.824 59.2846 247.419 58.1316 246.924 58.4376C246.429 58.7436 246.174 57.3776 246.358 55.4006C246.912 49.4376 245.607 37.9256 244.22 36.5386C243.505 35.8226 243.184 34.9736 243.507 34.6496C243.83 34.3266 244.237 32.4736 244.412 30.5306C244.7 27.3166 244.496 26.9996 242.14 26.9996H239.551L240.218 36.7496ZM232.824 30.4996C232.824 33.0706 233.5 33.4446 236.242 32.3926C238.905 31.3706 238.2 27.9996 235.324 27.9996C233.324 27.9996 232.824 28.4996 232.824 30.4996ZM223.824 31.4996C223.824 33.6106 224.291 33.9996 226.824 33.9996C229.357 33.9996 229.824 33.6106 229.824 31.4996C229.824 29.3886 229.357 28.9996 226.824 28.9996C224.291 28.9996 223.824 29.3886 223.824 31.4996ZM216.427 34.2496C216.935 42.6616 219.998 71.4726 220.465 72.2276C220.727 72.6526 221.815 72.9996 222.883 72.9996C224.441 72.9996 224.824 72.2966 224.824 69.4406C224.824 67.0566 224.452 66.1116 223.698 66.5776C222.911 67.0636 222.849 66.7776 223.49 65.6316C224.061 64.6116 223.916 58.4006 223.106 49.2436C221.443 30.4386 221.338 29.9996 218.478 29.9996C216.389 29.9996 216.195 30.4036 216.427 34.2496ZM196.282 39.7496C196.663 44.5626 197.155 50.9746 197.375 53.9996C197.861 60.6986 198.755 68.5826 199.432 72.1406C199.823 74.1916 200.48 74.7496 202.379 74.6406C203.912 74.5516 204.823 73.8926 204.823 72.8716C204.824 70.7676 202.239 68.6246 200.784 69.5246C200.04 69.9836 199.77 69.4166 199.99 67.8606C200.228 66.1796 200.868 65.5936 202.214 65.8256C203.919 66.1196 204.029 65.7286 203.339 61.8256C202.918 59.4466 202.631 56.4146 202.701 55.0876C202.771 53.7606 202.429 51.2286 201.941 49.4606C201.453 47.6926 201.426 45.6436 201.881 44.9066C202.349 44.1506 202.257 43.0206 201.671 42.3146C201.099 41.6266 200.649 38.7986 200.671 36.0316C200.707 31.2886 200.562 30.9996 198.148 30.9996H195.587L196.282 39.7496ZM202.824 32.4326C202.824 33.2206 203.675 34.1346 204.716 34.4656C207.918 35.4816 209.1 44.6956 206.324 46.9996C204.045 48.8916 204.49 52.5676 208.325 63.5096C211.416 72.3296 212.082 73.4676 214.013 73.2276C215.216 73.0786 216.392 72.7646 216.627 72.5296C216.862 72.2956 215.285 67.4146 213.123 61.6836C209.278 51.4906 209.232 51.2146 211.008 49.0206C213.635 45.7766 213.491 37.1166 210.751 33.6346C208.446 30.7036 202.824 29.8516 202.824 32.4326ZM178.238 35.4896C176.877 37.5676 176.714 39.6796 177.253 48.2396C178.418 66.7386 179.263 71.8826 181.504 74.1236C182.643 75.2626 184.335 76.0376 185.264 75.8466C186.768 75.5376 186.722 75.2516 184.845 73.2446C183.013 71.2856 182.677 69.4446 182.286 59.2446C181.686 43.6146 181.158 39.1076 179.726 37.3806C178.769 36.2286 178.91 35.6476 180.426 34.5006C181.471 33.7086 181.773 33.0486 181.097 33.0316C180.422 33.0136 179.136 34.1206 178.238 35.4896ZM186.574 33.6616C187.262 33.9396 187.824 34.6056 187.824 35.1416C187.824 35.6786 187.374 35.8396 186.824 35.4996C186.274 35.1596 185.824 35.4066 185.824 36.0476C185.824 36.6886 186.485 36.9596 187.292 36.6506C188.099 36.3406 189.026 36.5176 189.351 37.0436C189.676 37.5696 189.465 37.9996 188.883 37.9996C188.301 37.9996 187.824 39.3496 187.824 40.9996C187.824 43.5326 188.213 43.9996 190.324 43.9996C192.509 43.9996 192.824 43.5636 192.824 40.5386C192.824 36.8366 189.718 32.9356 186.885 33.0786C185.854 33.1306 185.749 33.3286 186.574 33.6616ZM149.214 35.4246C148.417 37.5016 151.516 43.9996 153.304 43.9996C155.724 43.9996 156.205 39.9866 154.119 37.1926C151.723 33.9836 150.005 33.3646 149.214 35.4246ZM159.979 34.8826C158.855 35.5946 158.901 38.8466 160.254 54.6176C162.286 78.2966 162.221 77.9996 165.423 77.9996C167.683 77.9996 167.918 77.6776 167.431 75.2496C167.128 73.7366 166.623 68.4496 166.308 63.4996C165.993 58.5496 165.31 50.6746 164.788 45.9996C164.267 41.3246 163.837 36.7116 163.832 35.7496C163.823 33.8736 162.161 33.4996 159.979 34.8826ZM165.824 35.8776C165.824 38.4836 167.123 39.2136 170.328 38.4096C174.057 37.4736 173.194 34.5856 169.066 34.1866C166.384 33.9266 165.824 34.2196 165.824 35.8776ZM143.024 36.1996C142.321 36.9026 141.824 40.2786 141.824 44.3556C141.824 50.3246 142.197 51.7996 144.452 54.7566C146.494 57.4336 147.29 57.9006 148.018 56.8506C148.678 55.8986 148.778 56.1336 148.355 57.6456C147.849 59.4556 148.152 59.7696 150.289 59.6456C153.202 59.4776 153.649 58.3616 151.074 57.6886C149.496 57.2766 149.49 57.2206 151.015 57.1156C153.136 56.9696 154.02 58.3256 153.198 60.4666C152.829 61.4296 151.937 61.8736 151.054 61.5346C149.765 61.0396 149.74 61.1936 150.889 62.5786C151.631 63.4716 152.482 67.5096 152.781 71.5516L153.324 78.8996L155.824 77.0066C158.026 75.3386 158.324 74.3626 158.324 68.8066C158.324 65.3376 157.997 62.0496 157.598 61.4996C157.199 60.9496 154.611 57.8416 151.848 54.5936C146.729 48.5776 146.055 46.2656 146.785 37.2496C146.984 34.7916 144.989 34.2346 143.024 36.1996ZM110.428 39.8306C110.11 40.3456 109.816 49.0196 109.774 59.1066C109.728 70.4416 109.294 77.9336 108.639 78.7226C107.886 79.6296 107.904 79.9996 108.702 79.9996C109.319 79.9996 109.824 80.7056 109.824 81.5696C109.824 82.6236 110.56 83.0336 112.068 82.8196C113.675 82.5906 114.457 81.6486 114.824 79.4996C115.191 77.3506 115.973 76.4086 117.58 76.1796C119.07 75.9676 119.824 75.1726 119.824 73.8136C119.824 72.1696 119.332 71.8606 117.324 72.2446L114.824 72.7226L114.706 59.1106C114.641 51.6246 114.303 44.1866 113.956 42.5816C113.309 39.5956 111.464 38.1556 110.428 39.8306ZM117.429 52.1946C120.2 67.7756 121.328 70.9996 124.004 70.9996C125.07 70.9996 125.685 70.5846 125.372 70.0766C125.058 69.5686 124.57 67.2066 124.287 64.8266C124.005 62.4466 122.985 55.7746 122.021 49.9996C120.346 39.9596 120.155 39.4866 117.666 39.1946L115.063 38.8896L117.429 52.1946ZM71.8731 41.9696C70.8631 42.5936 70.8221 45.1876 71.6761 54.6266C72.2661 61.1566 73.0131 70.0996 73.3371 74.4996C74.1231 85.2076 74.3491 85.8126 77.3461 85.2406C79.8261 84.7666 80.8221 81.7346 78.8901 80.5406C78.3761 80.2226 78.2211 78.3266 78.5461 76.3256C78.9701 73.7126 78.8111 72.8896 77.9801 73.4036C77.3441 73.7966 76.8241 73.6406 76.8241 73.0586C76.8241 72.4766 77.2741 71.9996 77.8241 71.9996C78.3741 71.9996 78.8241 71.3246 78.8241 70.4996C78.8241 69.6746 78.4781 68.9996 78.0551 68.9996C77.6321 68.9996 77.3571 66.8596 77.4441 64.2446C77.5321 61.6296 77.1651 57.0166 76.6291 53.9946C76.0931 50.9726 75.7041 47.0896 75.7631 45.3656C75.8751 42.1066 74.1241 40.5776 71.8731 41.9696ZM77.3671 41.9306C77.0501 42.4426 77.2561 43.1486 77.8241 43.4996C78.3921 43.8506 78.5981 44.5566 78.2811 45.0686C77.9651 45.5806 78.8581 45.9996 80.2651 45.9996C82.3281 45.9996 82.8241 45.5146 82.8241 43.4996C82.8241 41.5156 82.3201 40.9996 80.3831 40.9996C79.0401 40.9996 77.6831 41.4186 77.3671 41.9306ZM85.8281 41.7496C85.8381 43.5496 88.8461 75.9566 89.4071 80.3056C89.9481 84.4996 90.3011 85.0726 92.1761 84.8056C93.5211 84.6146 94.4431 83.6586 94.6441 82.2496C94.9311 80.2226 93.9941 79.4986 91.5741 79.8816C91.1621 79.9466 90.8241 78.8886 90.8241 77.5306C90.8241 75.7476 91.2401 75.2226 92.3241 75.6376C94.1491 76.3386 94.1501 76.6876 92.2691 60.4996C90.4161 44.5556 90.5201 45.7026 90.8151 44.4996C91.4121 42.0706 90.6491 40.9996 88.3241 40.9996C86.9491 40.9996 85.8261 41.3366 85.8281 41.7496ZM93.4731 42.5276C93.7951 43.3676 94.9061 44.5086 95.9421 45.0626C98.4041 46.3806 98.7181 56.7196 96.3241 57.6376C95.4991 57.9546 94.8241 59.2716 94.8241 60.5656C94.8241 63.0946 101.243 81.8186 102.562 83.1376C103 83.5756 104.294 83.6896 105.438 83.3906C107.466 82.8596 107.419 82.5736 103.527 71.9106C99.5911 61.1236 99.5621 60.9466 101.43 58.8816C104.402 55.5976 103.718 46.2486 100.287 43.2496C97.2781 40.6196 92.5491 40.1186 93.4731 42.5276ZM143.946 43.6746C143.075 45.1736 142.879 45.2166 142.854 43.9166C142.822 42.2326 143.874 40.7156 144.582 41.4246C144.816 41.6586 144.53 42.6706 143.946 43.6746ZM63.8241 44.8326C63.8241 47.3506 64.4681 47.7906 67.3481 47.2396C71.1411 46.5146 70.7071 42.9996 66.8241 42.9996C64.5821 42.9996 63.8241 43.4626 63.8241 44.8326ZM224.824 46.4996C224.824 48.5776 225.302 48.9996 227.657 48.9996C231.127 48.9996 231.753 48.4436 231.099 45.9416C230.744 44.5856 229.721 43.9996 227.707 43.9996C225.298 43.9996 224.824 44.4106 224.824 46.4996ZM39.8391 48.2496C39.8511 50.7036 40.0901 51.1316 40.8141 49.9996C41.4621 48.9856 41.5901 50.1206 41.2071 53.4996C40.7471 57.5706 40.9991 58.8766 42.5661 60.5286C44.5461 62.6166 45.1841 65.9996 43.5981 65.9996C43.1081 65.9996 42.9651 66.4186 43.2811 66.9306C43.5981 67.4426 43.4851 68.0906 43.0311 68.3716C42.5771 68.6526 42.5001 71.4956 42.8591 74.6906C43.2181 77.8856 43.1321 81.8466 42.6681 83.4926C42.2041 85.1396 41.8241 87.0516 41.8241 87.7426C41.8241 89.8856 44.6951 89.1256 46.3941 86.5336C47.7341 84.4876 47.8821 82.5736 47.2591 75.2836C46.8461 70.4526 46.4321 64.9246 46.3381 62.9996C46.2451 61.0746 45.8081 56.2366 45.3671 52.2496C44.6221 45.5136 44.3971 44.9996 42.1951 44.9996C40.1841 44.9996 39.8261 45.4926 39.8391 48.2496ZM47.8271 45.7496C47.8351 47.3206 50.8331 78.7206 51.4081 83.2496C51.9451 87.4746 52.2851 87.9996 54.4871 87.9996H56.9611L56.2581 79.7496C55.4761 70.5886 54.1241 61.5366 53.9421 64.2496C53.7391 67.2676 52.1331 66.1536 52.0411 62.9306C51.9681 60.3766 52.1941 60.0616 53.3861 61.0516C54.6121 62.0686 54.7381 61.3236 54.2571 55.8696C53.3661 45.7586 53.0901 44.9996 50.3051 44.9996C48.9401 44.9996 47.8261 45.3366 47.8271 45.7496ZM30.1951 51.4996C30.6761 55.5926 30.5191 57.0036 29.5831 57.0146C28.6601 57.0266 28.6341 57.2276 29.4831 57.7676C30.1411 58.1866 31.1321 63.6986 31.7741 70.5026C33.0821 84.3786 33.9951 87.3006 37.5211 88.9076C40.9911 90.4886 41.6361 89.4796 39.5151 85.7846C38.5411 84.0876 37.4781 80.7516 37.1521 78.3726C36.8251 75.9926 36.1681 74.2866 35.6911 74.5816C35.2141 74.8766 34.8241 74.6786 34.8241 74.1416C34.8241 73.6056 35.3491 72.9916 35.9921 72.7766C36.8811 72.4806 36.8821 71.2866 35.9951 67.7656C35.3551 65.2236 35.1261 62.3236 35.4871 61.3216C35.8481 60.3196 35.7781 59.8306 35.3321 60.2336C34.3691 61.1066 31.7781 57.8826 32.5021 56.7116C32.7771 56.2666 33.7211 56.4866 34.6001 57.2006C35.9751 58.3186 36.1021 58.2436 35.5111 56.6676C35.1331 55.6606 34.8241 52.8476 34.8241 50.4176C34.8241 46.3106 34.6391 45.9996 32.1861 45.9996C29.5771 45.9996 29.5561 46.0596 30.1951 51.4996ZM9.79808 48.9996C9.45908 51.9336 9.52408 53.2856 10.2331 57.9996C10.5231 59.9246 11.0671 65.8876 11.4421 71.2496C11.8181 76.6116 12.5341 80.9996 13.0331 80.9996C13.5331 80.9996 13.7451 80.6616 13.5051 80.2496C13.2641 79.8376 12.7571 74.7746 12.3771 68.9996C11.5251 56.0436 10.1851 45.6486 9.79808 48.9996ZM287.975 49.4996C287.701 53.9466 290.121 79.9996 290.808 79.9996C291.31 79.9996 290.742 72.5506 288.557 50.4996C288.245 47.3526 288.121 47.1396 287.975 49.4996ZM169.529 48.7846C167.175 49.0846 166.84 49.4846 167.403 51.3206C167.771 52.5186 168.129 53.5726 168.198 53.6616C168.267 53.7506 169.562 53.5856 171.074 53.2946C172.876 52.9486 173.824 52.1376 173.824 50.9416C173.824 48.6946 173.098 48.3296 169.529 48.7846ZM149.624 53.1996C151.59 55.1656 150.992 55.8906 148.409 54.6716C147.081 54.0456 146.208 53.1876 146.468 52.7656C147.147 51.6686 148.243 51.8186 149.624 53.1996ZM189.603 64.5536C189.248 64.9086 189.455 66.2916 190.064 67.6266C190.886 69.4306 190.869 70.3546 189.997 71.2266C188.324 72.8996 188.546 75.9996 190.339 75.9996C192.404 75.9996 195.548 70.5786 195.425 67.2306C195.346 65.0836 194.781 64.4366 192.787 64.2036C191.391 64.0406 189.959 64.1986 189.603 64.5536ZM34.5071 67.1876C34.1881 67.9846 33.9511 67.7476 33.9031 66.5826C33.8601 65.5286 34.0961 64.9386 34.4281 65.2706C34.7601 65.6026 34.7961 66.4656 34.5071 67.1876ZM123.241 66.6426C124.159 69.0366 123.443 69.2206 122.028 66.9546C121.356 65.8796 121.213 64.9996 121.709 64.9996C122.204 64.9996 122.894 65.7386 123.241 66.6426ZM228.516 67.7006C227.332 68.0066 226.814 68.9166 227.016 70.3346C227.267 72.1006 227.877 72.4356 230.324 72.1526C234.01 71.7256 233.866 71.8746 233.168 69.2056C232.594 67.0106 231.964 66.8066 228.516 67.7006ZM144.071 72.2496C145.054 76.8586 145.359 77.5156 146.824 78.1796C149.146 79.2316 150.824 79.1106 150.824 77.8926C150.824 77.2836 150.131 77.0516 149.283 77.3766C148.113 77.8256 147.955 77.5886 148.626 76.3886C149.112 75.5196 149.303 73.7266 149.051 72.4046C148.711 70.6286 147.937 69.9996 146.091 69.9996C144.023 69.9996 143.674 70.3886 144.071 72.2496ZM170.908 72.3156C170.312 72.9116 169.824 74.2096 169.824 75.1996C169.824 76.5326 170.602 76.9996 172.824 76.9996C175.318 76.9996 175.824 76.5976 175.824 74.6166C175.824 71.9696 172.711 70.5126 170.908 72.3156ZM122.077 76.5486C122.685 81.9496 122.784 82.0846 125.595 81.3496C127.777 80.7786 127.956 79.4296 126.345 75.6926C125.917 74.6976 124.949 74.1216 124.195 74.4106C123.441 74.6996 122.824 74.5336 122.824 74.0416C122.824 73.5496 123.611 72.9406 124.574 72.6886C125.82 72.3636 125.639 72.1986 123.944 72.1156C121.699 72.0066 121.593 72.2576 122.077 76.5486ZM114.553 75.6036C114.221 75.9356 113.358 75.9716 112.637 75.6826C111.839 75.3636 112.076 75.1266 113.241 75.0786C114.295 75.0356 114.885 75.2716 114.553 75.6036ZM35.8241 77.5586C35.8241 78.4156 35.3671 78.8346 34.8081 78.4896C34.2491 78.1436 34.0501 77.4426 34.3671 76.9306C35.2241 75.5436 35.8241 75.8016 35.8241 77.5586ZM126.824 77.3926C126.824 77.6086 126.149 78.0446 125.324 78.3616C124.499 78.6776 123.824 78.5006 123.824 77.9686C123.824 77.4356 124.499 76.9996 125.324 76.9996C126.149 76.9996 126.824 77.1766 126.824 77.3926ZM268.466 81.0916C263.045 81.5386 258.095 82.1156 257.466 82.3736C255.233 83.2896 266.499 82.8286 277.824 81.5416C290.772 80.0696 284.515 79.7696 268.466 81.0916ZM12.7361 85.8246C12.4731 88.2026 12.5381 90.3226 12.8821 90.5356C13.2251 90.7476 13.6051 93.9656 13.7251 97.6876C13.8461 101.409 14.1421 104.652 14.3841 104.894C15.5921 106.102 15.6101 103.473 14.4661 92.9706C13.4771 83.8996 13.1161 82.4046 12.7361 85.8246ZM60.5741 82.6886C59.5601 82.9536 58.8241 84.0946 58.8241 85.3996C58.8241 87.3346 59.2481 87.5906 61.8241 87.2126C64.1961 86.8646 64.8241 86.2736 64.8241 84.3866C64.8241 82.0496 64.1101 81.7646 60.5741 82.6886ZM231.824 84.2506C213.787 85.9146 210.389 86.3556 212.282 86.7836C214.197 87.2166 252.348 84.2156 254.324 83.4766C255.912 82.8826 241.149 83.3906 231.824 84.2506ZM193.824 87.5586C186.949 88.2566 172.774 89.5506 162.324 90.4336C133.163 92.8976 130.355 93.1716 129.907 93.6006C129.021 94.4496 138.337 93.8896 164.324 91.5316C179.174 90.1836 195.486 88.7736 200.574 88.3966C205.662 88.0206 209.824 87.3276 209.824 86.8566C209.824 86.3846 209.037 86.0646 208.074 86.1446C207.111 86.2246 200.699 86.8606 193.824 87.5586ZM115.824 94.9276C115.824 95.7666 126.719 95.2496 127.741 94.3616C127.97 94.1626 125.382 93.9996 121.991 93.9996C118.599 93.9996 115.824 94.4166 115.824 94.9276ZM96.3241 96.0986C91.3741 96.5556 79.6741 97.6096 70.3241 98.4426C60.9741 99.2746 45.2241 100.68 35.3241 101.563C25.4241 102.447 17.0991 103.412 16.8241 103.707C16.2981 104.271 18.9911 104.076 54.3241 100.986C66.4241 99.9266 82.3991 98.5376 89.8241 97.8986C97.2491 97.2586 106.024 96.4026 109.324 95.9946L115.324 95.2536L110.324 95.2616C107.574 95.2656 101.274 95.6426 96.3241 96.0986Z" fill="#FF9900"/>
</svg>
